<svg width="667" height="374" xmlns="http://www.w3.org/2000/svg" preserveAspectRatio="xMidYMid meet">

 <g>
  <title>background</title>
  <rect fill="none" id="canvas_background" height="602" width="802" y="-1" x="-1"/>
 </g>
 <g>
  <title>Layer 1</title>
  <g id="svg_1" fill="#000000" transform="translate(0,374) scale(0.10000000149011612,-0.10000000149011612) ">
   <path fill="#ffffff" id="svg_2" d="m3250,3640c-268,-32 -496,-240 -556,-506c-22,-99 -15,-242 16,-333c11,-35 18,-67 13,-71c-4,-4 -404,-86 -888,-184c-484,-98 -905,-184 -935,-193c-74,-20 -137,-58 -161,-96c-18,-31 -19,-58 -19,-767c0,-832 -6,-772 82,-824c60,-35 108,-47 883,-216c380,-83 905,-198 1169,-256c462,-101 481,-104 535,-93c143,29 2210,482 2321,508c130,32 183,58 224,114c21,28 21,36 24,740c2,392 0,727 -3,745c-8,46 -56,96 -117,122c-29,13 -150,43 -268,67c-118,24 -534,109 -924,188c-390,80 -711,147 -713,149c-2,2 6,37 19,77c34,109 32,272 -6,386c-96,293 -388,478 -696,443zm193,-115c181,-38 337,-178 398,-356c21,-64 39,-239 24,-239c-16,0 -175,143 -237,213c-75,83 -162,203 -198,270c-14,26 -28,47 -32,47c-17,0 -244,-186 -333,-275c-102,-100 -235,-259 -235,-281c0,-6 30,-24 67,-39c53,-23 68,-26 71,-15c12,34 79,151 125,219c56,81 167,203 227,251l38,30l52,-62c64,-78 234,-252 316,-324c56,-50 63,-53 99,-47l38,6l-7,-41c-8,-56 -48,-144 -91,-204c-24,-33 -31,-50 -23,-53c7,-2 436,-85 953,-185c517,-99 960,-187 984,-195c25,-8 60,-25 78,-38c66,-44 64,-17 61,-737l-3,-652l-36,-32c-20,-19 -60,-42 -90,-54c-43,-16 -876,-193 -1099,-233c-30,-5 -65,-12 -77,-14c-19,-4 -23,1 -31,42c-6,26 -8,51 -6,55c3,4 0,8 -5,8c-6,0 -11,-15 -11,-33c0,-55 -14,-52 -32,5l-16,53l-1,-57c-1,-34 -5,-58 -12,-58c-5,0 -9,12 -8,28c3,42 0,62 -11,62c-5,0 -7,-7 -4,-15c7,-16 -12,-45 -28,-45c-5,0 -6,9 -3,20c4,13 2,20 -6,20c-7,0 -5,8 7,22c18,21 18,20 -13,-2c-17,-12 -34,-33 -38,-47c-3,-13 -9,-22 -13,-19c-5,3 -14,-11 -21,-30c-13,-37 -33,-41 -40,-8c-3,16 -2,17 14,4c17,-14 17,-13 7,7c-15,28 -15,36 0,27c8,-5 9,-2 5,10c-4,10 -7,24 -7,31c0,7 -6,15 -13,18c-10,4 -13,-2 -9,-19c3,-17 0,-24 -11,-24c-9,0 -19,5 -22,10c-10,16 -25,12 -19,-5c4,-8 1,-15 -5,-15c-6,0 -11,3 -11,8c0,4 -10,18 -21,32l-20,25l20,-40c14,-29 16,-46 9,-58c-5,-10 -6,-26 -3,-37c4,-11 2,-20 -3,-20c-5,0 -18,29 -28,64c-20,70 -36,71 -23,3c4,-23 6,-44 4,-46c-4,-3 -18,26 -29,61c-7,23 -36,12 -36,-12c0,-11 -4,-22 -10,-25c-5,-3 -10,0 -10,9c0,8 -3,16 -7,18c-5,2 -16,19 -25,38l-17,35l4,-45c5,-43 5,-44 -8,-17c-18,37 -25,26 -20,-31c2,-26 1,-42 -4,-37c-12,15 -37,12 -46,-5c-4,-9 -5,-5 -3,10c3,14 1,32 -4,40c-8,12 -10,10 -11,-10l-1,-25l-11,27c-15,38 -24,35 -20,-5c3,-24 2,-29 -6,-17c-6,8 -11,23 -11,32c0,9 -5,20 -11,24c-9,5 -10,-8 -7,-45c5,-52 1,-60 -20,-39c-6,6 -18,13 -26,14c-12,2 -13,-9 -9,-52c7,-65 -2,-71 -17,-11c-18,70 -18,70 -33,55c-7,-7 -18,-22 -25,-33c-11,-19 -12,-18 -13,10c-1,17 -3,23 -6,12c-6,-23 -23,-11 -23,17c0,12 -7,31 -15,42c-13,17 -14,16 -5,-16c6,-19 10,-46 10,-60c-1,-23 -2,-23 -20,10c-23,43 -25,36 -4,-15c8,-20 13,-39 11,-41c-2,-3 -10,9 -17,25c-7,17 -19,36 -28,43c-11,9 -9,1 6,-23c12,-20 22,-49 22,-65l-1,-29l-15,28c-8,15 -19,27 -24,27c-5,0 -11,8 -13,17c-3,10 -6,-2 -7,-27l-2,-45l-12,46c-7,25 -18,54 -25,65c-10,16 -11,11 -7,-29c7,-55 1,-59 -18,-15c-13,31 -14,29 -9,-42c6,-86 -9,-88 -31,-4c-15,61 -31,59 -32,-4c-1,-71 -4,-72 -23,-12l-18,55l5,-62c3,-35 2,-63 -1,-63c-13,0 -38,62 -33,78c3,10 -8,1 -25,-18l-31,-35l7,60c4,33 8,81 9,107c1,52 2,53 47,43c20,-5 34,-3 39,4c5,8 14,9 33,2c33,-13 56,-5 66,23c14,37 -6,70 -54,89c-48,20 -58,44 -30,67c18,15 31,5 37,-25c6,-33 71,-29 110,7c26,24 30,26 25,8c-7,-27 38,-75 79,-83c16,-3 36,-8 45,-12c21,-8 59,27 59,55c0,21 2,22 70,15c83,-8 110,4 138,63c15,33 21,37 57,38l40,2l-40,-7c-29,-4 -41,-11 -43,-26c-2,-11 -16,-32 -30,-47l-26,-28l46,0c39,0 106,9 158,22c8,2 5,0 -7,-6c-30,-13 -29,-21 6,-36c27,-11 33,-9 70,21c23,18 41,34 41,37c0,2 -19,2 -42,-2l-43,-7l35,22c19,11 48,33 63,48c46,42 85,131 58,131c-6,0 -3,12 5,28c15,30 17,51 7,77c-5,14 -9,10 -17,-16c-11,-34 -48,-62 -100,-75l-28,-7l17,26l16,26l-74,-6c-45,-3 -81,-1 -94,5c-19,10 -22,7 -40,-36c-18,-41 -25,-49 -64,-60c-51,-15 -153,-82 -157,-103c-2,-9 12,-20 35,-28l38,-14l-54,-15c-41,-12 -56,-13 -59,-4c-2,7 -9,12 -16,12c-7,0 -23,12 -35,26c-18,20 -20,28 -10,34c10,7 9,13 -3,32c-18,27 -31,71 -34,112c-3,34 -44,73 -56,53c-5,-7 -10,0 -14,19c-5,25 -14,35 -45,47c-36,14 -39,14 -44,-5c-9,-28 -37,-18 -55,19c-12,25 -20,31 -37,26c-18,-4 -23,0 -29,21c-3,14 -11,26 -18,26c-6,0 -22,9 -36,20c-14,11 -36,20 -50,20c-16,0 -29,8 -35,23c-12,28 -51,34 -75,12c-10,-9 -24,-14 -30,-10c-6,3 -23,-7 -39,-24c-16,-17 -33,-31 -38,-31c-6,0 -18,-9 -28,-20c-10,-11 -23,-19 -29,-18c-30,5 -56,-14 -56,-42c0,-16 -5,-32 -10,-35c-6,-3 -7,-17 -4,-29c4,-16 0,-25 -10,-29c-23,-9 -20,-34 5,-47c23,-13 21,-20 -8,-25c-10,-2 -20,-4 -23,-5c-3,-1 -9,-3 -15,-4c-29,-5 -65,-31 -65,-47c0,-10 -6,-22 -12,-26c-21,-13 -35,-36 -42,-70c-6,-26 -4,-32 14,-38c19,-6 20,-9 8,-23c-8,-10 -20,-29 -28,-45c-7,-15 -19,-27 -26,-27c-7,0 -17,-12 -23,-27c-10,-25 -11,-24 -7,17c4,41 3,43 -10,26c-8,-11 -14,-26 -14,-33c0,-7 -4,-13 -10,-13c-5,0 -10,-7 -10,-16c0,-8 -4,-12 -10,-9c-5,3 -10,14 -10,25c0,21 -29,36 -35,17c-2,-6 -6,-24 -9,-39c-11,-47 -23,-31 -20,25l4,52l-21,-62c-11,-35 -23,-63 -27,-63c-11,0 -12,91 -1,114c10,20 9,20 -10,-2c-25,-28 -34,-28 -25,0c6,20 5,21 -8,10c-9,-7 -15,-24 -15,-38c0,-26 -9,-41 -18,-32c-3,3 -7,26 -8,51c-1,25 -4,44 -7,42c-3,-2 -5,36 -5,83c0,82 1,88 26,109c28,24 63,87 57,103c-4,13 -61,-59 -61,-76c0,-7 -4,-11 -8,-8c-4,2 -11,-1 -15,-7c-4,-8 -9,-7 -15,2c-4,8 -5,-27 -2,-77c3,-51 2,-104 -2,-120l-8,-29l-7,30c-7,28 -8,27 -9,-12c-1,-30 -5,-43 -15,-43c-22,0 -24,31 -4,72c14,30 17,53 13,130c-7,136 -8,139 -41,153c-16,8 -23,14 -15,14c8,1 12,4 8,7c-3,3 -15,3 -27,-1c-15,-5 -19,-12 -15,-25c4,-12 -2,-23 -15,-33c-12,-8 -38,-47 -58,-86c-20,-39 -59,-102 -86,-140c-26,-38 -46,-75 -44,-83c3,-8 12,1 23,22c14,25 20,30 23,18c1,-9 -6,-33 -17,-54c-11,-20 -18,-41 -15,-46c3,-4 -4,-8 -14,-8c-17,0 -168,29 -238,45c-31,7 -84,145 -55,145c5,0 11,-10 14,-22c3,-17 6,-11 12,19l8,43l41,-5c44,-6 44,-5 -42,31c-18,8 -41,28 -50,44c-11,19 -25,30 -40,30c-21,0 -39,16 -76,65c-15,20 -15,20 -16,-2c0,-31 -25,-30 -94,6c-56,30 -67,28 -44,-8c10,-16 7,-25 -21,-56c-18,-20 -30,-39 -28,-41c2,-3 28,7 58,21c61,28 96,31 123,12c17,-12 18,-19 7,-64c-12,-47 -11,-56 13,-114c14,-35 24,-65 22,-67c-4,-3 -407,78 -570,115c-86,19 -157,53 -185,89c-21,27 -21,31 -21,690l0,662l26,32c35,41 88,67 173,85c60,12 580,112 1627,312l242,46l-43,63c-157,229 -127,519 71,705c134,125 306,173 487,134zm-253,-2554c0,-14 -18,-23 -30,-16c-6,4 -8,11 -5,16c8,12 35,12 35,0zm190,-15c0,-3 -4,-8 -10,-11c-5,-3 -10,-1 -10,4c0,6 5,11 10,11c6,0 10,-2 10,-4zm-1062,-180c3,-59 0,-101 -7,-115c-32,-59 -47,7 -30,134c16,120 31,112 37,-19zm-43,87c-3,-10 -13,-63 -21,-118c-8,-55 -21,-113 -29,-130c-7,-16 -11,-42 -8,-57c3,-17 1,-28 -6,-28c-6,0 -11,19 -11,45c0,25 4,45 10,45c5,0 1,15 -10,33c-41,70 -29,151 32,202c34,29 53,32 43,8zm1975,-25c-34,-29 -137,-76 -180,-83c-22,-4 -12,2 25,14c33,11 85,36 115,55c64,40 75,44 40,14zm-895,-68c3,-6 -1,-13 -9,-16c-9,-3 -16,-15 -16,-25c0,-10 -6,-19 -12,-20c-7,0 -3,-4 10,-9c22,-9 31,-40 12,-40c-5,0 -10,5 -10,10c0,6 -7,10 -15,10c-8,0 -15,4 -15,9c0,5 -11,12 -25,15c-20,5 -25,13 -25,36c0,33 14,39 29,13c7,-11 11,-13 11,-5c0,9 7,11 20,7c14,-5 20,-2 20,9c0,18 16,21 25,6zm-555,-20c0,-5 -4,-10 -10,-10c-5,0 -10,5 -10,10c0,6 5,10 10,10c6,0 10,-4 10,-10zm60,0c0,-5 -5,-10 -11,-10c-5,0 -7,5 -4,10c3,6 8,10 11,10c2,0 4,-4 4,-10zm720,-12c0,-6 -6,-5 -15,2c-8,7 -15,14 -15,16c0,2 7,1 15,-2c8,-4 15,-11 15,-16zm250,6c0,-9 -5,-14 -12,-12c-18,6 -21,28 -4,28c9,0 16,-7 16,-16zm-823,-48c4,-22 -15,-48 -29,-40c-5,3 -7,12 -4,19c3,8 0,16 -7,19c-9,5 -9,7 1,12c6,3 12,15 12,27c1,22 1,22 12,2c7,-11 14,-28 15,-39zm93,44c0,-5 -5,-10 -11,-10c-5,0 -7,5 -4,10c3,6 8,10 11,10c2,0 4,-4 4,-10zm-53,-22c-3,-8 -6,-5 -6,6c-1,11 2,17 5,13c3,-3 4,-12 1,-19zm337,3c3,-5 -1,-14 -8,-20c-16,-13 -32,2 -21,19c8,12 22,13 29,1zm-279,-11c-3,-5 -15,-10 -26,-10c-10,0 -19,5 -19,10c0,6 12,10 26,10c14,0 23,-4 19,-10zm-945,-18c0,-5 -7,-17 -15,-28c-14,-19 -14,-19 -15,2c0,11 3,24 7,27c9,10 23,9 23,-1zm1113,2c12,-4 10,-10 -9,-31c-31,-33 -58,-26 -41,11c12,26 23,31 50,20zm-1162,-87c-8,-8 -11,-2 -11,19c0,40 14,54 18,19c2,-15 -1,-32 -7,-38zm69,-12c-17,-59 -30,-46 -23,23c5,48 7,52 21,38c13,-13 13,-21 2,-61zm618,45c-1,-17 -4,-33 -8,-35c-9,-5 -21,46 -13,57c10,18 22,6 21,-22zm372,16c0,-8 -4,-18 -10,-21c-5,-3 -10,3 -10,14c0,12 5,21 10,21c6,0 10,-6 10,-14zm-176,-62c12,-37 13,-53 3,-94c-14,-60 -33,-70 -63,-35c-25,30 -29,26 -39,-32c-11,-67 -29,-67 -22,0c6,46 4,55 -8,53c-8,-1 -21,-8 -27,-14c-20,-20 -23,-14 -20,40c4,76 9,86 28,59c20,-28 64,-25 80,6c6,13 18,31 27,41c13,15 14,21 4,32c-10,12 -9,12 5,1c9,-7 23,-32 32,-57zm193,44c-3,-8 -6,-5 -6,6c-1,11 2,17 5,13c3,-3 4,-12 1,-19zm-170,-2c-4,-9 4,-16 24,-20c16,-3 40,-13 54,-22c20,-13 23,-20 14,-35c-12,-24 -50,-25 -78,-1c-20,17 -35,67 -25,84c8,13 17,9 11,-6zm-1300,-62c-12,-12 -32,10 -34,38l-3,33l21,-34c11,-18 18,-35 16,-37zm1468,24c-29,-16 -29,-16 -15,-33c7,-8 23,-15 35,-15c19,0 24,-8 34,-60c13,-67 6,-95 -16,-64c-8,10 -17,17 -21,14c-4,-3 -13,8 -20,23c-8,16 -25,33 -38,39c-27,13 -29,20 -13,51c18,35 41,57 58,57c12,-1 11,-3 -4,-12zm-430,-102c-14,-21 -19,-23 -31,-12c-10,10 -11,22 -3,50c13,46 23,47 16,1c-3,-21 -2,-33 4,-30c5,4 9,21 9,39c0,46 14,56 18,12c2,-20 -4,-45 -13,-60zm-372,68c3,-4 2,-16 -4,-27c-8,-15 -8,-18 1,-12c8,5 11,1 8,-10c-5,-29 -22,-27 -39,3c-11,20 -12,31 -5,39c12,13 29,16 39,7zm427,-16c-1,-7 -7,-26 -15,-43l-13,-30l-1,27c-1,14 2,33 5,42c7,19 24,21 24,4zm-530,-19c0,-14 -17,-10 -23,5c-4,10 -1,13 9,9c7,-3 14,-9 14,-14zm411,-42c-8,-8 -11,-2 -11,19c0,40 14,54 18,19c2,-15 -1,-32 -7,-38zm417,-12c10,-9 10,-22 -1,-71l-15,-59l-2,50c-1,28 -4,43 -7,35c-3,-8 -10,-19 -15,-25c-5,-5 -16,-19 -24,-30c-14,-19 -15,-18 -10,20c4,30 3,36 -5,25c-8,-12 -10,-10 -6,10c2,14 7,34 11,45c3,11 -3,2 -14,-20l-19,-40l-1,32c0,17 5,44 10,58l10,27l38,-23c20,-12 43,-27 50,-34zm1102,34c0,-11 -4,-17 -10,-14c-5,3 -10,13 -10,21c0,8 5,14 10,14c6,0 10,-9 10,-21zm144,-4c-4,-8 -11,-15 -16,-15c-6,0 -5,6 2,15c7,8 14,15 16,15c2,0 1,-7 -2,-15zm-1764,-24c0,-17 -4,-33 -10,-36c-6,-4 -10,8 -10,29c0,20 5,36 10,36c6,0 10,-13 10,-29zm1450,-37c0,-21 -4,-33 -10,-29c-5,3 -10,19 -10,36c0,16 5,29 10,29c6,0 10,-16 10,-36zm-1207,-30c-15,-23 -19,-25 -21,-11c-2,10 4,30 14,45c15,22 19,24 22,10c2,-9 -5,-29 -15,-44zm103,22c3,-14 -1,-36 -10,-53l-15,-28l-1,53c0,54 15,70 26,28zm205,-39c-8,-8 -11,-7 -11,4c0,20 13,34 18,19c3,-7 -1,-17 -7,-23zm559,-14c-1,-44 -2,-47 -15,-29c-16,21 -18,36 -9,60c12,31 24,15 24,-31zm90,28c5,-11 10,-28 10,-38c0,-15 -4,-14 -20,7c-21,27 -26,50 -10,50c5,0 14,-9 20,-19zm-610,-67c0,-19 -4,-34 -10,-34c-5,0 -10,18 -10,41c0,24 4,38 10,34c6,-3 10,-22 10,-41zm130,-69c0,-8 -4,-15 -10,-15c-5,0 -10,7 -10,15c0,8 5,15 10,15c6,0 10,-7 10,-15z"/>
   <path fill="#ffffff" id="svg_3" d="m3100,3393c-8,-3 -28,-15 -44,-26c-30,-21 -32,-46 -7,-110c9,-23 14,-26 30,-17c42,22 51,40 51,101c0,59 -2,62 -30,52z"/>
   <path fill="#ffffff" id="svg_4" d="m3115,2950c0,-107 1,-110 23,-110c20,0 22,5 22,50c0,46 2,50 24,50c25,0 36,-21 36,-72c0,-28 24,-48 57,-48c17,1 17,1 1,11c-12,7 -18,22 -18,49c0,21 -7,45 -15,53c-13,13 -13,17 1,28c9,7 14,25 12,43c-4,38 -35,56 -98,56l-45,0l0,-110zm100,70c8,-26 -2,-57 -21,-64c-25,-10 -34,2 -34,45c0,35 3,39 24,39c16,0 27,-7 31,-20z"/>
   <path fill="#ffffff" id="svg_5" d="m3270,2950l0,-110l55,0c79,0 115,39 81,85c-12,16 -12,22 1,42c34,51 -8,93 -92,93l-45,0l0,-110zm98,48c3,-35 1,-38 -22,-38c-24,0 -26,4 -26,41c0,36 2,40 23,37c18,-2 23,-10 25,-40zm0,-100c3,-35 1,-38 -22,-38c-24,0 -26,4 -26,41c0,36 2,40 23,37c18,-2 23,-10 25,-40z"/>
   <path fill="#ffffff" id="svg_6" d="m3452,3043c-14,-12 -21,-31 -22,-58c-5,-130 6,-150 82,-143l49,5l-6,-41c-4,-23 -9,-49 -12,-60c-3,-12 -1,-16 6,-12c7,4 11,-1 11,-13c0,-16 6,-21 29,-21c25,0 31,6 46,48c10,26 33,77 51,114c19,37 34,69 34,72c0,2 -23,20 -50,40l-51,37l-19,-43c-11,-24 -20,-49 -20,-55c0,-8 -13,-13 -29,-13c-21,0 -28,-5 -27,-17c1,-13 -6,-18 -24,-18c-25,0 -25,1 -25,85c0,81 1,85 23,88c12,2 23,-1 23,-7c1,-6 2,-17 3,-23c1,-16 56,-24 56,-8c0,6 -11,22 -25,35c-29,30 -74,33 -103,8z"/>
   <path fill="#ffffff" id="svg_7" d="m3017,2904c-18,-19 14,-174 57,-279l14,-33l45,21l44,21l-34,44c-38,50 -65,100 -98,180c-12,29 -24,49 -28,46z"/>
   <path fill="#ffffff" id="svg_8" d="m3130,2330c-1,-3 -1,-63 -1,-135l0,-130l-23,60c-13,33 -34,93 -47,133l-23,72l-60,0l-61,0l0,-174l0,-173l50,0l50,0l-2,136c-2,155 0,154 58,-19c17,-52 36,-100 40,-106c5,-6 33,-12 62,-12l52,0l0,177l0,177l-47,0c-27,-1 -48,-3 -48,-6zm-163,-227c-2,-32 -3,-6 -3,57c0,63 1,89 3,58c2,-32 2,-84 0,-115zm210,0c-2,-32 -3,-6 -3,57c0,63 1,89 3,58c2,-32 2,-84 0,-115z"/>
   <path fill="#ffffff" id="svg_9" d="m3383,2329c-53,-10 -80,-24 -93,-49c-14,-26 -14,-214 0,-240c18,-34 69,-53 140,-53c82,0 134,23 149,64l10,29l-52,0c-52,0 -52,0 -52,-32c0,-40 -39,-57 -82,-36c-25,12 -28,19 -31,66c-2,31 2,60 9,68c9,11 9,14 0,14c-8,0 -11,21 -9,67c3,62 5,69 29,80c20,10 34,10 59,2c28,-10 31,-15 28,-40c-5,-29 -4,-29 48,-29l53,0l-10,29c-17,49 -106,76 -196,60zm-52,-216c-8,-43 -9,-38 -9,47c0,85 1,90 9,48c6,-29 6,-67 0,-95z"/>
   <path fill="#ffffff" id="svg_10" d="m3625,2159l0,-178l50,0l50,0l0,82l0,82l55,0l55,0l3,-68c2,-41 -2,-74 -8,-82c-10,-12 -1,-14 47,-14l58,1l0,178l0,178l-58,0c-43,0 -56,-3 -48,-11c6,-6 11,-44 11,-84l0,-73l-61,0l-61,0l3,84l4,83l-50,0l-50,0l0,-178zm52,-51c-2,-29 -3,-6 -3,52c0,58 1,81 3,53c2,-29 2,-77 0,-105zm210,0c-2,-29 -3,-6 -3,52c0,58 1,81 3,53c2,-29 2,-77 0,-105z"/>
   <path fill="#ffffff" id="svg_11" d="m4058,2326c-71,-19 -78,-29 -78,-102c0,-41 -4,-64 -11,-64c-8,0 -8,-4 -1,-13c6,-7 12,-37 14,-67c3,-49 6,-56 37,-74c48,-28 163,-28 211,0c32,18 36,25 41,76c3,30 9,60 13,66c3,6 2,13 -3,16c-4,3 -8,30 -8,60c0,30 -4,59 -7,65c-23,37 -135,57 -208,37zm117,-166l0,-145l-50,0l-50,0l-3,135c-1,74 0,141 3,148c3,9 20,12 52,10l48,-3l0,-145zm-146,-2c-1,-61 -2,-68 -10,-43c-9,27 -4,115 7,115c2,0 4,-33 3,-72zm210,2c0,-14 -4,-34 -9,-45c-6,-14 -9,-3 -9,40c-1,42 2,56 9,45c5,-8 9,-26 9,-40z"/>
   <path fill="#ffffff" id="svg_12" d="m2168,2245c3,-61 0,-85 -8,-85c-10,0 -10,-3 0,-15c7,-9 10,-40 8,-85l-3,-70l45,0l45,0l0,77l0,78l40,3c62,5 79,-14 85,-95c6,-77 15,-86 100,-97c37,-5 41,-4 20,4c-35,15 -40,27 -40,98c0,58 -2,63 -30,80l-30,19l30,22c24,17 30,29 30,59c0,20 -4,42 -8,49c-18,28 -82,43 -184,43l-103,0l3,-85zm200,48c17,-22 10,-102 -9,-114c-8,-5 -34,-8 -59,-7l-45,3l-3,64c-2,44 1,67 10,73c20,14 91,1 106,-19zm62,-48c0,-11 -5,-27 -10,-35c-7,-11 -10,-1 -10,35c0,36 3,46 10,35c5,-8 10,-24 10,-35zm-210,-86c0,-64 -4,-98 -10,-94c-6,3 -10,48 -10,101c0,56 4,94 10,94c6,0 10,-40 10,-101zm209,-124c1,-36 -2,-46 -9,-35c-5,8 -9,40 -9,70c1,70 17,38 18,-35z"/>
   <path fill="#ffffff" id="svg_13" d="m2630,2317c0,-10 -90,-262 -114,-317c-5,-12 3,-15 44,-15c41,0 50,3 50,18c0,10 7,33 14,52c15,34 16,35 76,35c57,0 61,-2 71,-27c6,-16 12,-39 13,-53c3,-23 7,-25 59,-26c55,-2 56,-2 42,20c-15,22 -75,182 -104,273l-16,53l-67,0c-49,0 -68,-4 -68,-13zm7,-134c-27,-76 -63,-150 -51,-103c11,42 67,181 71,176c2,-2 -7,-35 -20,-73zm148,-23c21,-55 35,-103 32,-106c-5,-5 -60,129 -72,179c-15,57 4,23 40,-73zm-65,45c6,-19 9,-39 6,-44c-4,-5 -2,-12 4,-16c5,-3 10,-13 10,-21c0,-10 -12,-14 -39,-14c-44,0 -58,12 -36,30c8,7 12,16 9,21c-7,12 15,79 26,79c5,0 14,-16 20,-35z"/>
   <path fill="#ffffff" id="svg_14" d="m1578,1988c17,-17 17,-249 0,-266c-9,-9 -9,-12 0,-12c17,0 17,-231 0,-248c-9,-9 15,-12 111,-12c143,0 200,12 241,50c27,25 30,35 30,86c0,53 -3,60 -39,94l-38,36l38,33c38,32 39,33 39,103c0,65 -2,72 -30,98c-41,38 -98,50 -241,50c-96,0 -120,-3 -111,-12zm258,-39c10,-8 14,-37 14,-92c0,-102 -11,-117 -85,-117c-64,0 -65,2 -65,120c0,74 3,91 18,100c20,12 99,5 118,-11zm84,-89c0,-19 -5,-42 -10,-50c-7,-11 -10,4 -10,50c0,46 3,61 10,50c5,-8 10,-31 10,-50zm-260,-142c0,-79 -4,-128 -10,-128c-6,0 -10,54 -10,143c0,95 3,137 10,127c5,-8 10,-72 10,-142zm174,-40c20,-29 22,-160 3,-176c-21,-18 -92,-25 -116,-13c-19,11 -21,20 -21,105c0,51 3,96 7,99c3,4 30,7 59,7c43,0 56,-4 68,-22zm85,-83c0,-16 -4,-39 -9,-50c-6,-14 -9,0 -9,45c-1,45 2,60 9,50c5,-8 9,-28 9,-45z"/>
   <path fill="#ffffff" id="svg_15" d="m4480,1990c0,-5 5,-12 10,-15c15,-9 13,-255 -2,-255c-9,0 -9,-3 0,-12c20,-20 16,-217 -4,-239c-16,-17 -12,-18 66,-18c62,0 80,3 71,12c-16,16 -15,247 2,247c7,0 34,-57 61,-130l49,-131l59,3l60,3l47,125c26,69 51,124 56,123c14,-4 18,-222 5,-239c-10,-10 2,-13 66,-13c58,0 74,3 65,12c-16,16 -15,229 1,245c9,9 9,12 0,12c-16,0 -17,251 -1,267c9,9 -8,11 -67,10l-79,-2l-75,-192c-41,-106 -77,-193 -80,-193c-3,0 -39,87 -80,193l-76,192l-77,2c-42,1 -77,-2 -77,-7zm553,-361c-10,-89 -10,-84 -10,96c0,182 0,186 10,94c6,-63 6,-130 0,-190zm-474,94c-1,-105 -4,-168 -9,-153c-16,49 -10,330 6,330c2,0 4,-80 3,-177zm129,10c59,-151 72,-195 41,-139c-23,42 -99,239 -99,256c0,25 12,1 58,-117zm234,30c-32,-94 -78,-203 -86,-203c-6,0 42,141 79,233c15,37 29,66 32,63c2,-2 -9,-44 -25,-93zm-305,-35c-3,-7 -5,-2 -5,12c0,14 2,19 5,13c2,-7 2,-19 0,-25zm350,0c-3,-7 -5,-2 -5,12c0,14 2,19 5,13c2,-7 2,-19 0,-25z"/>
   <path fill="#ffffff" id="svg_16" d="m2039,1850c-20,-11 -39,-27 -43,-36c-11,-29 -8,-282 4,-305c28,-51 169,-68 231,-26c32,21 34,26 37,87c2,35 8,70 14,77c7,9 7,13 -1,13c-7,0 -11,26 -11,75c0,81 -13,105 -66,125c-42,16 -126,11 -165,-10zm131,-20c16,-16 20,-33 20,-89c0,-40 -5,-73 -11,-77c-8,-4 -8,-9 0,-17c18,-18 14,-127 -6,-149c-23,-25 -68,-23 -87,4c-18,26 -22,133 -5,144c8,4 8,9 0,17c-6,6 -11,42 -11,79c0,74 19,108 60,108c11,0 29,-9 40,-20zm-133,-212c-2,-29 -3,-8 -3,47c0,55 1,79 3,53c2,-26 2,-71 0,-100zm203,42c0,-30 -5,-62 -10,-70c-7,-10 -10,11 -10,70c0,59 3,80 10,70c5,-8 10,-40 10,-70z"/>
   <path fill="#ffffff" id="svg_17" d="m2315,1665l0,-205l54,0c45,0 52,2 42,14c-14,17 -11,168 4,173c6,2 26,-39 45,-89l35,-93l50,0l50,0l34,93c19,50 38,92 43,92c5,0 8,-42 6,-95l-3,-95l54,0c43,0 52,3 43,12c-15,15 -16,142 -2,168c7,13 7,21 0,25c-13,8 -13,161 0,186c10,18 7,19 -49,19l-59,0l-57,-146c-32,-80 -61,-142 -65,-137c-4,4 -32,70 -61,146l-53,137l-56,0l-55,0l0,-205zm412,-62c-2,-37 -3,-9 -3,62c0,72 1,102 3,68c2,-34 2,-93 0,-130zm-360,5c-2,-35 -3,-9 -3,57c0,66 1,94 3,63c2,-32 2,-86 0,-120zm263,52c-32,-86 -57,-137 -44,-90c12,46 66,181 70,177c3,-2 -9,-41 -26,-87zm-160,-1c17,-45 29,-83 27,-86c-4,-4 -67,148 -67,162c0,19 13,-5 40,-76z"/>
   <path fill="#ffffff" id="svg_18" d="m3015,1856c-61,-27 -66,-40 -66,-189c0,-75 5,-145 10,-156c38,-70 245,-66 267,7c3,9 10,25 15,35c8,15 3,17 -52,17c-53,0 -60,-2 -49,-15c18,-22 4,-64 -24,-71c-37,-9 -59,-1 -73,26c-16,31 -17,122 -2,137c8,8 8,13 0,17c-14,9 -14,116 -1,150c21,57 117,35 108,-25c-4,-29 -4,-29 43,-29l48,0l-10,32c-5,18 -9,34 -9,35c0,2 -18,12 -40,23c-45,23 -120,26 -165,6zm-18,-248c-2,-29 -3,-6 -3,52c0,58 1,81 3,53c2,-29 2,-77 0,-105z"/>
   <path fill="#ffffff" id="svg_19" d="m3356,1859c8,-13 -46,-199 -57,-199c-5,0 -6,-6 -3,-13c2,-7 -8,-52 -24,-100l-28,-87l47,0c45,0 47,1 52,33c3,17 10,45 16,60c10,27 14,28 67,25l57,-3l13,-45c8,-25 12,-51 9,-57c-3,-10 11,-13 50,-13l53,0l-13,28c-8,15 -23,61 -34,102c-11,41 -32,113 -46,160c-14,47 -24,93 -21,103c4,15 -4,17 -71,17c-51,0 -72,-3 -67,-11zm149,-197c15,-52 25,-95 23,-98c-5,-4 -68,194 -68,211c1,22 20,-26 45,-113zm-59,6c-2,-10 -1,-18 4,-18c4,0 10,-9 13,-20c5,-18 0,-20 -39,-20c-46,0 -54,9 -29,34c8,8 11,17 6,20c-5,4 -2,28 7,57l17,52l13,-44c7,-24 11,-52 8,-61zm-96,-23c-18,-53 -33,-95 -36,-93c-2,2 11,51 28,107c18,57 34,99 35,94c2,-6 -10,-54 -27,-108z"/>
   <path fill="#ffffff" id="svg_20" d="m3638,1858c15,-15 16,-184 1,-194c-8,-4 -8,-9 0,-17c15,-15 14,-160 -1,-175c-9,-9 0,-12 43,-12l54,0l-3,157c-1,86 0,154 2,152c2,-2 23,-73 46,-156l42,-153l57,0l56,0l0,205l0,205l-50,0l-50,0l2,-157l1,-158l-34,120c-19,66 -39,137 -44,158l-11,37l-61,0c-48,0 -59,-3 -50,-12zm249,-265c-2,-38 -3,-7 -3,67c0,74 1,105 3,68c2,-38 2,-98 0,-135zm-200,15c-2,-35 -3,-9 -3,57c0,66 1,94 3,63c2,-32 2,-86 0,-120z"/>
   <path fill="#ffffff" id="svg_21" d="m3968,1820c3,-42 7,-50 24,-50c32,0 55,18 67,51c6,17 16,29 23,27c10,-4 13,-50 13,-196l0,-192l55,0c42,0 51,3 42,12c-15,15 -16,164 -2,173c8,5 8,11 0,20c-6,8 -10,47 -8,97c3,75 5,83 23,83c13,0 21,-8 23,-22c4,-25 37,-53 63,-53c13,0 18,11 21,50l3,50l-175,0l-175,0l3,-50zm181,-157c-1,-100 -3,-111 -11,-73c-8,41 -2,190 8,190c2,0 4,-53 3,-117z"/>
   <path fill="#ffffff" id="svg_22" d="m4345,1665l0,-205l50,0l50,0l0,205l0,205l-50,0l-50,0l0,-205zm52,-62c-2,-37 -3,-9 -3,62c0,72 1,102 3,68c2,-34 2,-93 0,-130z"/>
   <path fill="#ffffff" id="svg_23" d="m5126,1394c-11,-30 -6,-53 20,-84c22,-26 28,-28 38,-16c12,16 96,30 96,15c0,-4 6,-6 14,-3c8,3 18,-7 26,-26c17,-42 28,-46 56,-19c28,26 32,73 8,107c-24,34 -35,27 -28,-19l7,-42l-29,8c-16,4 -52,8 -81,9c-40,1 -57,6 -77,25c-14,14 -26,33 -26,43c0,22 -16,24 -24,2z"/>
   <path fill="#ffffff" id="svg_24" d="m4571,1305c-7,-16 -10,-41 -8,-54c7,-34 -18,-87 -53,-113c-24,-17 -30,-29 -30,-58c0,-42 -14,-64 -97,-150c-63,-64 -71,-82 -53,-110c8,-11 9,-9 5,10c-4,19 3,34 30,62c20,20 41,35 48,32c7,-2 22,4 32,16c10,11 24,20 30,20c21,0 75,-57 75,-79c0,-12 5,-21 10,-21c6,0 10,-8 10,-18c0,-15 -13,-22 -55,-31c-30,-7 -57,-17 -60,-22c-3,-5 2,-6 11,-2c12,4 15,2 12,-8c-3,-9 -22,-15 -49,-17c-34,-2 -50,2 -67,18c-12,11 -22,17 -22,12c0,-40 133,-62 147,-24c9,23 23,32 52,32c13,0 39,11 57,25c21,16 46,25 69,25c20,0 53,9 75,20c22,11 42,20 44,20c3,0 15,-19 27,-42c15,-30 24,-68 27,-121c3,-52 8,-75 15,-68c5,5 8,49 5,103c-3,77 -9,104 -31,150c-15,31 -27,72 -27,94l0,39l81,-78c45,-43 84,-75 87,-72c3,3 -31,43 -76,89c-55,56 -84,94 -88,115c-7,34 -20,41 -27,14c-3,-10 -5,-1 -6,19c0,20 -4,43 -7,51c-15,39 218,-83 270,-142c24,-26 36,-27 29,-2c-11,43 -176,151 -231,151c-46,0 -84,24 -128,81c-43,57 -74,78 -59,42c11,-27 18,-63 12,-63c-25,0 -59,28 -66,54l-8,31l-12,-30zm179,-146l0,-24l-25,25c-17,18 -23,32 -19,47l6,23l19,-24c11,-13 19,-35 19,-47zm-75,41c3,-6 -1,-7 -9,-4c-18,7 -21,14 -7,14c6,0 13,-4 16,-10zm14,-39c20,-15 31,-31 31,-47c0,-26 -55,-113 -111,-177l-34,-37l-43,41c-33,31 -41,46 -37,62c6,21 6,22 -9,3c-20,-25 -20,-13 0,25c8,17 13,38 10,46c-4,9 11,34 36,64c41,47 45,49 85,46c22,-3 55,-14 72,-26zm66,-41c3,-5 1,-10 -4,-10c-6,0 -11,5 -11,10c0,6 2,10 4,10c3,0 8,-4 11,-10zm15,-49c18,-35 12,-135 -10,-164c-24,-31 -81,-51 -117,-42c-18,4 -29,1 -39,-12c-12,-17 -13,-16 -14,9c0,17 13,41 35,65c20,21 54,66 76,101c23,34 45,62 50,62c4,0 13,-9 19,-19zm-320,-104c0,-2 -10,-12 -22,-23l-23,-19l19,23c18,21 26,27 26,19z"/>
   <path fill="#ffffff" id="svg_25" d="m4555,1139c-4,-6 -5,-12 -2,-15c2,-3 7,2 10,11c7,17 1,20 -8,4z"/>
   <path fill="#ffffff" id="svg_26" d="m4673,1127c-6,-13 -8,-29 -3,-36c4,-8 10,-1 14,20c8,40 3,47 -11,16z"/>
   <path fill="#ffffff" id="svg_27" d="m4592,1098c-7,-7 -12,-16 -12,-21c0,-5 7,-1 16,8c9,9 23,14 31,11c8,-3 11,-1 8,4c-8,14 -28,13 -43,-2z"/>
   <path fill="#ffffff" id="svg_28" d="m4604,1065c-4,-9 -2,-21 4,-27c15,-15 44,-1 40,19c-4,23 -36,29 -44,8z"/>
   <path fill="#ffffff" id="svg_29" d="m4615,990c-21,-22 -33,-40 -26,-40c14,0 71,57 71,71c0,14 -3,12 -45,-31z"/>
   <path fill="#ffffff" id="svg_30" d="m5555,1305c-22,-8 -67,-24 -100,-35c-38,-13 -47,-19 -25,-15c19,3 59,8 87,11c29,4 51,10 48,14c-6,9 39,28 80,33c24,3 21,4 -10,5c-22,0 -58,-6 -80,-13z"/>
   <path fill="#ffffff" id="svg_31" d="m1550,1296c-20,-7 -92,-13 -164,-14c-71,-1 -132,-5 -135,-8c-10,-10 28,-59 68,-88c34,-25 49,-29 101,-29c44,1 67,6 81,19c22,20 25,44 7,63c-11,10 -10,11 5,6c17,-7 22,-31 11,-60c-9,-21 -56,-45 -92,-45l-29,0l4,-57c5,-78 11,-103 24,-103c6,0 8,7 5,17c-10,24 12,81 34,88c11,3 31,-1 45,-11c14,-9 25,-12 25,-6c0,6 -4,14 -10,17c-5,3 -10,24 -10,45c0,31 6,43 30,60c16,11 35,33 42,48c17,35 43,39 79,12c27,-19 31,-19 45,-6c19,20 10,34 -32,52c-40,17 -87,17 -134,0z"/>
   <path fill="#ffffff" id="svg_32" d="m1793,1248l-43,-9l22,-30c12,-16 25,-29 30,-29c11,0 78,61 78,71c0,11 -31,10 -87,-3z"/>
   <path fill="#ffffff" id="svg_33" d="m5090,1242c-23,-10 -55,-35 -64,-50c-9,-16 11,-42 32,-42c13,0 12,3 -3,14c-19,14 -19,14 0,36c25,28 72,24 66,-5c-2,-11 -3,-41 -2,-67c1,-54 -22,-102 -77,-160c-32,-34 -34,-40 -24,-63c12,-25 41,-41 93,-52c28,-5 70,25 68,50c0,6 -7,2 -16,-10c-8,-13 -23,-23 -32,-23c-18,1 -61,30 -43,30c26,0 10,29 -19,35l-31,7l26,27c14,14 37,49 51,76c21,43 23,55 14,83c-9,27 -7,37 12,68c18,30 19,38 8,45c-16,10 -38,10 -59,1z"/>
   <path fill="#ffffff" id="svg_34" d="m5401,1215c9,-11 14,-26 11,-34c-8,-23 20,-31 48,-14c25,14 30,14 64,-2c31,-15 35,-20 24,-31c-7,-7 -32,-16 -55,-20c-37,-6 -45,-3 -66,20c-14,15 -35,26 -48,25c-22,0 -23,-1 -4,-8c11,-5 29,-18 39,-30c33,-36 156,-18 156,23c0,21 -60,54 -110,62c-25,4 -52,12 -60,18c-12,8 -11,6 1,-9z"/>
   <path fill="#ffffff" id="svg_35" d="m1569,1140c13,-11 28,-20 35,-20c6,0 4,5 -4,10c-12,8 -10,10 10,11l25,1l-25,8c-14,4 -34,8 -45,9c-19,0 -18,-1 4,-19z"/>
   <path fill="#ffffff" id="svg_36" d="m1647,1151c2,-2 -2,-10 -8,-17c-7,-9 -4,-14 11,-19c29,-9 32,-4 12,20c-9,11 -16,18 -15,16z"/>
   <path fill="#ffffff" id="svg_37" d="m2286,1142c-17,-9 -42,-29 -58,-44c-15,-16 -32,-28 -38,-28c-5,0 -10,-7 -10,-15c0,-8 -4,-15 -9,-15c-15,0 -18,-59 -4,-79c10,-14 10,-26 3,-46c-12,-33 -13,-65 -1,-65c5,0 7,8 5,18c-5,20 32,85 45,78c4,-3 14,6 21,19c7,14 17,25 22,25c4,0 8,5 8,10c0,15 30,42 73,68c45,26 42,26 59,8c8,-7 32,-23 55,-34c48,-25 141,-115 213,-206c48,-60 72,-84 54,-53c-56,97 -202,251 -262,276c-27,11 -30,16 -20,29c11,13 10,14 -10,8c-12,-4 -22,-4 -21,1c4,21 -2,32 -15,27c-8,-3 -16,3 -19,15c-7,26 -50,28 -91,3z"/>
   <path fill="#ffffff" id="svg_38" d="m5253,1143c-20,-7 -15,-33 6,-33c27,0 46,26 25,34c-8,3 -16,6 -17,5c-1,0 -8,-3 -14,-6z"/>
   <path fill="#ffffff" id="svg_39" d="m1804,1095c8,-43 54,-127 98,-178c38,-44 25,-6 -18,53c-18,25 -42,70 -54,100c-27,69 -35,76 -26,25z"/>
   <path fill="#ffffff" id="svg_40" d="m4070,1077c18,-25 28,-50 25,-59c-5,-14 2,-15 59,-11c51,5 71,2 91,-11c24,-16 25,-15 25,2c0,10 -8,26 -18,36c-19,16 -182,86 -202,86c-6,0 3,-19 20,-43z"/>
   <path fill="#ffffff" id="svg_41" d="m5332,979c-13,-16 -29,-29 -37,-29c-7,0 -18,-7 -25,-15c-7,-9 -28,-23 -47,-31c-18,-9 -31,-19 -29,-22c3,-3 28,7 55,21c48,24 51,25 82,9c20,-11 43,-36 59,-66c21,-40 36,-53 83,-76c69,-33 77,-23 10,11c-37,18 -54,36 -75,74c-15,28 -39,60 -53,72c-25,22 -25,24 -9,48c23,36 14,38 -14,4z"/>
   <path fill="#ffffff" id="svg_42" d="m2359,984c-10,-13 -10,-17 2,-25c8,-5 17,-9 21,-9c7,0 28,33 28,44c0,13 -38,5 -51,-10z"/>
   <path fill="#ffffff" id="svg_43" d="m1862,878c-14,-14 3,-38 27,-38c9,0 22,-5 29,-12c9,-9 12,-9 12,3c0,15 -20,38 -46,52c-6,3 -16,1 -22,-5z"/>
   <path fill="#ffffff" id="svg_44" d="m4454,850c-1,-16 3,-27 7,-24c11,6 12,54 2,54c-5,0 -8,-13 -9,-30z"/>
   <path fill="#ffffff" id="svg_45" d="m1750,861c0,-5 16,-23 36,-41c69,-60 135,-76 133,-33c0,11 -3,13 -6,6c-11,-29 -63,-14 -109,32c-46,46 -54,52 -54,36z"/>
   <path fill="#ffffff" id="svg_46" d="m4383,863c4,-3 0,-14 -9,-24c-9,-10 -14,-25 -11,-34c8,-18 28,-20 25,-2c-2,6 5,12 14,12c24,0 31,10 23,34c-4,13 -15,21 -27,21c-12,0 -18,-3 -15,-7z"/>
   <path fill="#ffffff" id="svg_47" d="m4450,625c0,-14 4,-25 9,-25c4,0 6,11 3,25c-2,14 -6,25 -8,25c-2,0 -4,-11 -4,-25z"/>
   <path fill="#ffffff" id="svg_48" d="m4263,580c0,-25 2,-35 4,-22c2,12 2,32 0,45c-2,12 -4,2 -4,-23z"/>
   <path fill="#ffffff" id="svg_49" d="m4000,561c0,-6 4,-13 10,-16c6,-3 7,1 4,9c-7,18 -14,21 -14,7z"/>
   <path fill="#ffffff" id="svg_50" d="m3900,505c0,-8 4,-15 10,-15c5,0 7,7 4,15c-4,8 -8,15 -10,15c-2,0 -4,-7 -4,-15z"/>
   <path fill="#ffffff" id="svg_51" d="m2961,464c0,-11 3,-14 6,-6c3,7 2,16 -1,19c-3,4 -6,-2 -5,-13z"/>
  </g>
 </g>
</svg>