<?xml version="1.0" standalone="no"?>
<!DOCTYPE svg PUBLIC "-//W3C//DTD SVG 20010904//EN"
 "http://www.w3.org/TR/2001/REC-SVG-20010904/DTD/svg10.dtd">
<svg version="1.0" xmlns="http://www.w3.org/2000/svg"
 width="667.000000pt" height="374.000000pt" viewBox="0 0 667.000000 374.000000"
 preserveAspectRatio="xMidYMid meet">

<g transform="translate(0.000000,374.000000) scale(0.100000,-0.100000)"
fill="#000000" stroke="none">
<path d="M3250 3640 c-268 -32 -496 -240 -556 -506 -22 -99 -15 -242 16 -333
11 -35 18 -67 13 -71 -4 -4 -404 -86 -888 -184 -484 -98 -905 -184 -935 -193
-74 -20 -137 -58 -161 -96 -18 -31 -19 -58 -19 -767 0 -832 -6 -772 82 -824
60 -35 108 -47 883 -216 380 -83 905 -198 1169 -256 462 -101 481 -104 535
-93 143 29 2210 482 2321 508 130 32 183 58 224 114 21 28 21 36 24 740 2 392
0 727 -3 745 -8 46 -56 96 -117 122 -29 13 -150 43 -268 67 -118 24 -534 109
-924 188 -390 80 -711 147 -713 149 -2 2 6 37 19 77 34 109 32 272 -6 386 -96
293 -388 478 -696 443z m193 -115 c181 -38 337 -178 398 -356 21 -64 39 -239
24 -239 -16 0 -175 143 -237 213 -75 83 -162 203 -198 270 -14 26 -28 47 -32
47 -17 0 -244 -186 -333 -275 -102 -100 -235 -259 -235 -281 0 -6 30 -24 67
-39 53 -23 68 -26 71 -15 12 34 79 151 125 219 56 81 167 203 227 251 l38 30
52 -62 c64 -78 234 -252 316 -324 56 -50 63 -53 99 -47 l38 6 -7 -41 c-8 -56
-48 -144 -91 -204 -24 -33 -31 -50 -23 -53 7 -2 436 -85 953 -185 517 -99 960
-187 984 -195 25 -8 60 -25 78 -38 66 -44 64 -17 61 -737 l-3 -652 -36 -32
c-20 -19 -60 -42 -90 -54 -43 -16 -876 -193 -1099 -233 -30 -5 -65 -12 -77
-14 -19 -4 -23 1 -31 42 -6 26 -8 51 -6 55 3 4 0 8 -5 8 -6 0 -11 -15 -11 -33
0 -55 -14 -52 -32 5 l-16 53 -1 -57 c-1 -34 -5 -58 -12 -58 -5 0 -9 12 -8 28
3 42 0 62 -11 62 -5 0 -7 -7 -4 -15 7 -16 -12 -45 -28 -45 -5 0 -6 9 -3 20 4
13 2 20 -6 20 -7 0 -5 8 7 22 18 21 18 20 -13 -2 -17 -12 -34 -33 -38 -47 -3
-13 -9 -22 -13 -19 -5 3 -14 -11 -21 -30 -13 -37 -33 -41 -40 -8 -3 16 -2 17
14 4 17 -14 17 -13 7 7 -15 28 -15 36 0 27 8 -5 9 -2 5 10 -4 10 -7 24 -7 31
0 7 -6 15 -13 18 -10 4 -13 -2 -9 -19 3 -17 0 -24 -11 -24 -9 0 -19 5 -22 10
-10 16 -25 12 -19 -5 4 -8 1 -15 -5 -15 -6 0 -11 3 -11 8 0 4 -10 18 -21 32
l-20 25 20 -40 c14 -29 16 -46 9 -58 -5 -10 -6 -26 -3 -37 4 -11 2 -20 -3 -20
-5 0 -18 29 -28 64 -20 70 -36 71 -23 3 4 -23 6 -44 4 -46 -4 -3 -18 26 -29
61 -7 23 -36 12 -36 -12 0 -11 -4 -22 -10 -25 -5 -3 -10 0 -10 9 0 8 -3 16 -7
18 -5 2 -16 19 -25 38 l-17 35 4 -45 c5 -43 5 -44 -8 -17 -18 37 -25 26 -20
-31 2 -26 1 -42 -4 -37 -12 15 -37 12 -46 -5 -4 -9 -5 -5 -3 10 3 14 1 32 -4
40 -8 12 -10 10 -11 -10 l-1 -25 -11 27 c-15 38 -24 35 -20 -5 3 -24 2 -29 -6
-17 -6 8 -11 23 -11 32 0 9 -5 20 -11 24 -9 5 -10 -8 -7 -45 5 -52 1 -60 -20
-39 -6 6 -18 13 -26 14 -12 2 -13 -9 -9 -52 7 -65 -2 -71 -17 -11 -18 70 -18
70 -33 55 -7 -7 -18 -22 -25 -33 -11 -19 -12 -18 -13 10 -1 17 -3 23 -6 12 -6
-23 -23 -11 -23 17 0 12 -7 31 -15 42 -13 17 -14 16 -5 -16 6 -19 10 -46 10
-60 -1 -23 -2 -23 -20 10 -23 43 -25 36 -4 -15 8 -20 13 -39 11 -41 -2 -3 -10
9 -17 25 -7 17 -19 36 -28 43 -11 9 -9 1 6 -23 12 -20 22 -49 22 -65 l-1 -29
-15 28 c-8 15 -19 27 -24 27 -5 0 -11 8 -13 17 -3 10 -6 -2 -7 -27 l-2 -45
-12 46 c-7 25 -18 54 -25 65 -10 16 -11 11 -7 -29 7 -55 1 -59 -18 -15 -13 31
-14 29 -9 -42 6 -86 -9 -88 -31 -4 -15 61 -31 59 -32 -4 -1 -71 -4 -72 -23
-12 l-18 55 5 -62 c3 -35 2 -63 -1 -63 -13 0 -38 62 -33 78 3 10 -8 1 -25 -18
l-31 -35 7 60 c4 33 8 81 9 107 1 52 2 53 47 43 20 -5 34 -3 39 4 5 8 14 9 33
2 33 -13 56 -5 66 23 14 37 -6 70 -54 89 -48 20 -58 44 -30 67 18 15 31 5 37
-25 6 -33 71 -29 110 7 26 24 30 26 25 8 -7 -27 38 -75 79 -83 16 -3 36 -8 45
-12 21 -8 59 27 59 55 0 21 2 22 70 15 83 -8 110 4 138 63 15 33 21 37 57 38
l40 2 -40 -7 c-29 -4 -41 -11 -43 -26 -2 -11 -16 -32 -30 -47 l-26 -28 46 0
c39 0 106 9 158 22 8 2 5 0 -7 -6 -30 -13 -29 -21 6 -36 27 -11 33 -9 70 21
23 18 41 34 41 37 0 2 -19 2 -42 -2 l-43 -7 35 22 c19 11 48 33 63 48 46 42
85 131 58 131 -6 0 -3 12 5 28 15 30 17 51 7 77 -5 14 -9 10 -17 -16 -11 -34
-48 -62 -100 -75 l-28 -7 17 26 16 26 -74 -6 c-45 -3 -81 -1 -94 5 -19 10 -22
7 -40 -36 -18 -41 -25 -49 -64 -60 -51 -15 -153 -82 -157 -103 -2 -9 12 -20
35 -28 l38 -14 -54 -15 c-41 -12 -56 -13 -59 -4 -2 7 -9 12 -16 12 -7 0 -23
12 -35 26 -18 20 -20 28 -10 34 10 7 9 13 -3 32 -18 27 -31 71 -34 112 -3 34
-44 73 -56 53 -5 -7 -10 0 -14 19 -5 25 -14 35 -45 47 -36 14 -39 14 -44 -5
-9 -28 -37 -18 -55 19 -12 25 -20 31 -37 26 -18 -4 -23 0 -29 21 -3 14 -11 26
-18 26 -6 0 -22 9 -36 20 -14 11 -36 20 -50 20 -16 0 -29 8 -35 23 -12 28 -51
34 -75 12 -10 -9 -24 -14 -30 -10 -6 3 -23 -7 -39 -24 -16 -17 -33 -31 -38
-31 -6 0 -18 -9 -28 -20 -10 -11 -23 -19 -29 -18 -30 5 -56 -14 -56 -42 0 -16
-5 -32 -10 -35 -6 -3 -7 -17 -4 -29 4 -16 0 -25 -10 -29 -23 -9 -20 -34 5 -47
23 -13 21 -20 -8 -25 -10 -2 -20 -4 -23 -5 -3 -1 -9 -3 -15 -4 -29 -5 -65 -31
-65 -47 0 -10 -6 -22 -12 -26 -21 -13 -35 -36 -42 -70 -6 -26 -4 -32 14 -38
19 -6 20 -9 8 -23 -8 -10 -20 -29 -28 -45 -7 -15 -19 -27 -26 -27 -7 0 -17
-12 -23 -27 -10 -25 -11 -24 -7 17 4 41 3 43 -10 26 -8 -11 -14 -26 -14 -33 0
-7 -4 -13 -10 -13 -5 0 -10 -7 -10 -16 0 -8 -4 -12 -10 -9 -5 3 -10 14 -10 25
0 21 -29 36 -35 17 -2 -6 -6 -24 -9 -39 -11 -47 -23 -31 -20 25 l4 52 -21 -62
c-11 -35 -23 -63 -27 -63 -11 0 -12 91 -1 114 10 20 9 20 -10 -2 -25 -28 -34
-28 -25 0 6 20 5 21 -8 10 -9 -7 -15 -24 -15 -38 0 -26 -9 -41 -18 -32 -3 3
-7 26 -8 51 -1 25 -4 44 -7 42 -3 -2 -5 36 -5 83 0 82 1 88 26 109 28 24 63
87 57 103 -4 13 -61 -59 -61 -76 0 -7 -4 -11 -8 -8 -4 2 -11 -1 -15 -7 -4 -8
-9 -7 -15 2 -4 8 -5 -27 -2 -77 3 -51 2 -104 -2 -120 l-8 -29 -7 30 c-7 28 -8
27 -9 -12 -1 -30 -5 -43 -15 -43 -22 0 -24 31 -4 72 14 30 17 53 13 130 -7
136 -8 139 -41 153 -16 8 -23 14 -15 14 8 1 12 4 8 7 -3 3 -15 3 -27 -1 -15
-5 -19 -12 -15 -25 4 -12 -2 -23 -15 -33 -12 -8 -38 -47 -58 -86 -20 -39 -59
-102 -86 -140 -26 -38 -46 -75 -44 -83 3 -8 12 1 23 22 14 25 20 30 23 18 1
-9 -6 -33 -17 -54 -11 -20 -18 -41 -15 -46 3 -4 -4 -8 -14 -8 -17 0 -168 29
-238 45 -31 7 -84 145 -55 145 5 0 11 -10 14 -22 3 -17 6 -11 12 19 l8 43 41
-5 c44 -6 44 -5 -42 31 -18 8 -41 28 -50 44 -11 19 -25 30 -40 30 -21 0 -39
16 -76 65 -15 20 -15 20 -16 -2 0 -31 -25 -30 -94 6 -56 30 -67 28 -44 -8 10
-16 7 -25 -21 -56 -18 -20 -30 -39 -28 -41 2 -3 28 7 58 21 61 28 96 31 123
12 17 -12 18 -19 7 -64 -12 -47 -11 -56 13 -114 14 -35 24 -65 22 -67 -4 -3
-407 78 -570 115 -86 19 -157 53 -185 89 -21 27 -21 31 -21 690 l0 662 26 32
c35 41 88 67 173 85 60 12 580 112 1627 312 l242 46 -43 63 c-157 229 -127
519 71 705 134 125 306 173 487 134z m-253 -2554 c0 -14 -18 -23 -30 -16 -6 4
-8 11 -5 16 8 12 35 12 35 0z m190 -15 c0 -3 -4 -8 -10 -11 -5 -3 -10 -1 -10
4 0 6 5 11 10 11 6 0 10 -2 10 -4z m-1062 -180 c3 -59 0 -101 -7 -115 -32 -59
-47 7 -30 134 16 120 31 112 37 -19z m-43 87 c-3 -10 -13 -63 -21 -118 -8 -55
-21 -113 -29 -130 -7 -16 -11 -42 -8 -57 3 -17 1 -28 -6 -28 -6 0 -11 19 -11
45 0 25 4 45 10 45 5 0 1 15 -10 33 -41 70 -29 151 32 202 34 29 53 32 43 8z
m1975 -25 c-34 -29 -137 -76 -180 -83 -22 -4 -12 2 25 14 33 11 85 36 115 55
64 40 75 44 40 14z m-895 -68 c3 -6 -1 -13 -9 -16 -9 -3 -16 -15 -16 -25 0
-10 -6 -19 -12 -20 -7 0 -3 -4 10 -9 22 -9 31 -40 12 -40 -5 0 -10 5 -10 10 0
6 -7 10 -15 10 -8 0 -15 4 -15 9 0 5 -11 12 -25 15 -20 5 -25 13 -25 36 0 33
14 39 29 13 7 -11 11 -13 11 -5 0 9 7 11 20 7 14 -5 20 -2 20 9 0 18 16 21 25
6z m-555 -20 c0 -5 -4 -10 -10 -10 -5 0 -10 5 -10 10 0 6 5 10 10 10 6 0 10
-4 10 -10z m60 0 c0 -5 -5 -10 -11 -10 -5 0 -7 5 -4 10 3 6 8 10 11 10 2 0 4
-4 4 -10z m720 -12 c0 -6 -6 -5 -15 2 -8 7 -15 14 -15 16 0 2 7 1 15 -2 8 -4
15 -11 15 -16z m250 6 c0 -9 -5 -14 -12 -12 -18 6 -21 28 -4 28 9 0 16 -7 16
-16z m-823 -48 c4 -22 -15 -48 -29 -40 -5 3 -7 12 -4 19 3 8 0 16 -7 19 -9 5
-9 7 1 12 6 3 12 15 12 27 1 22 1 22 12 2 7 -11 14 -28 15 -39z m93 44 c0 -5
-5 -10 -11 -10 -5 0 -7 5 -4 10 3 6 8 10 11 10 2 0 4 -4 4 -10z m-53 -22 c-3
-8 -6 -5 -6 6 -1 11 2 17 5 13 3 -3 4 -12 1 -19z m337 3 c3 -5 -1 -14 -8 -20
-16 -13 -32 2 -21 19 8 12 22 13 29 1z m-279 -11 c-3 -5 -15 -10 -26 -10 -10
0 -19 5 -19 10 0 6 12 10 26 10 14 0 23 -4 19 -10z m-945 -18 c0 -5 -7 -17
-15 -28 -14 -19 -14 -19 -15 2 0 11 3 24 7 27 9 10 23 9 23 -1z m1113 2 c12
-4 10 -10 -9 -31 -31 -33 -58 -26 -41 11 12 26 23 31 50 20z m-1162 -87 c-8
-8 -11 -2 -11 19 0 40 14 54 18 19 2 -15 -1 -32 -7 -38z m69 -12 c-17 -59 -30
-46 -23 23 5 48 7 52 21 38 13 -13 13 -21 2 -61z m618 45 c-1 -17 -4 -33 -8
-35 -9 -5 -21 46 -13 57 10 18 22 6 21 -22z m372 16 c0 -8 -4 -18 -10 -21 -5
-3 -10 3 -10 14 0 12 5 21 10 21 6 0 10 -6 10 -14z m-176 -62 c12 -37 13 -53
3 -94 -14 -60 -33 -70 -63 -35 -25 30 -29 26 -39 -32 -11 -67 -29 -67 -22 0 6
46 4 55 -8 53 -8 -1 -21 -8 -27 -14 -20 -20 -23 -14 -20 40 4 76 9 86 28 59
20 -28 64 -25 80 6 6 13 18 31 27 41 13 15 14 21 4 32 -10 12 -9 12 5 1 9 -7
23 -32 32 -57z m193 44 c-3 -8 -6 -5 -6 6 -1 11 2 17 5 13 3 -3 4 -12 1 -19z
m-170 -2 c-4 -9 4 -16 24 -20 16 -3 40 -13 54 -22 20 -13 23 -20 14 -35 -12
-24 -50 -25 -78 -1 -20 17 -35 67 -25 84 8 13 17 9 11 -6z m-1300 -62 c-12
-12 -32 10 -34 38 l-3 33 21 -34 c11 -18 18 -35 16 -37z m1468 24 c-29 -16
-29 -16 -15 -33 7 -8 23 -15 35 -15 19 0 24 -8 34 -60 13 -67 6 -95 -16 -64
-8 10 -17 17 -21 14 -4 -3 -13 8 -20 23 -8 16 -25 33 -38 39 -27 13 -29 20
-13 51 18 35 41 57 58 57 12 -1 11 -3 -4 -12z m-430 -102 c-14 -21 -19 -23
-31 -12 -10 10 -11 22 -3 50 13 46 23 47 16 1 -3 -21 -2 -33 4 -30 5 4 9 21 9
39 0 46 14 56 18 12 2 -20 -4 -45 -13 -60z m-372 68 c3 -4 2 -16 -4 -27 -8
-15 -8 -18 1 -12 8 5 11 1 8 -10 -5 -29 -22 -27 -39 3 -11 20 -12 31 -5 39 12
13 29 16 39 7z m427 -16 c-1 -7 -7 -26 -15 -43 l-13 -30 -1 27 c-1 14 2 33 5
42 7 19 24 21 24 4z m-530 -19 c0 -14 -17 -10 -23 5 -4 10 -1 13 9 9 7 -3 14
-9 14 -14z m411 -42 c-8 -8 -11 -2 -11 19 0 40 14 54 18 19 2 -15 -1 -32 -7
-38z m417 -12 c10 -9 10 -22 -1 -71 l-15 -59 -2 50 c-1 28 -4 43 -7 35 -3 -8
-10 -19 -15 -25 -5 -5 -16 -19 -24 -30 -14 -19 -15 -18 -10 20 4 30 3 36 -5
25 -8 -12 -10 -10 -6 10 2 14 7 34 11 45 3 11 -3 2 -14 -20 l-19 -40 -1 32 c0
17 5 44 10 58 l10 27 38 -23 c20 -12 43 -27 50 -34z m1102 34 c0 -11 -4 -17
-10 -14 -5 3 -10 13 -10 21 0 8 5 14 10 14 6 0 10 -9 10 -21z m144 -4 c-4 -8
-11 -15 -16 -15 -6 0 -5 6 2 15 7 8 14 15 16 15 2 0 1 -7 -2 -15z m-1764 -24
c0 -17 -4 -33 -10 -36 -6 -4 -10 8 -10 29 0 20 5 36 10 36 6 0 10 -13 10 -29z
m1450 -37 c0 -21 -4 -33 -10 -29 -5 3 -10 19 -10 36 0 16 5 29 10 29 6 0 10
-16 10 -36z m-1207 -30 c-15 -23 -19 -25 -21 -11 -2 10 4 30 14 45 15 22 19
24 22 10 2 -9 -5 -29 -15 -44z m103 22 c3 -14 -1 -36 -10 -53 l-15 -28 -1 53
c0 54 15 70 26 28z m205 -39 c-8 -8 -11 -7 -11 4 0 20 13 34 18 19 3 -7 -1
-17 -7 -23z m559 -14 c-1 -44 -2 -47 -15 -29 -16 21 -18 36 -9 60 12 31 24 15
24 -31z m90 28 c5 -11 10 -28 10 -38 0 -15 -4 -14 -20 7 -21 27 -26 50 -10 50
5 0 14 -9 20 -19z m-610 -67 c0 -19 -4 -34 -10 -34 -5 0 -10 18 -10 41 0 24 4
38 10 34 6 -3 10 -22 10 -41z m130 -69 c0 -8 -4 -15 -10 -15 -5 0 -10 7 -10
15 0 8 5 15 10 15 6 0 10 -7 10 -15z"/>
<path d="M3100 3393 c-8 -3 -28 -15 -44 -26 -30 -21 -32 -46 -7 -110 9 -23 14
-26 30 -17 42 22 51 40 51 101 0 59 -2 62 -30 52z"/>
<path d="M3115 2950 c0 -107 1 -110 23 -110 20 0 22 5 22 50 0 46 2 50 24 50
25 0 36 -21 36 -72 0 -28 24 -48 57 -48 17 1 17 1 1 11 -12 7 -18 22 -18 49 0
21 -7 45 -15 53 -13 13 -13 17 1 28 9 7 14 25 12 43 -4 38 -35 56 -98 56 l-45
0 0 -110z m100 70 c8 -26 -2 -57 -21 -64 -25 -10 -34 2 -34 45 0 35 3 39 24
39 16 0 27 -7 31 -20z"/>
<path d="M3270 2950 l0 -110 55 0 c79 0 115 39 81 85 -12 16 -12 22 1 42 34
51 -8 93 -92 93 l-45 0 0 -110z m98 48 c3 -35 1 -38 -22 -38 -24 0 -26 4 -26
41 0 36 2 40 23 37 18 -2 23 -10 25 -40z m0 -100 c3 -35 1 -38 -22 -38 -24 0
-26 4 -26 41 0 36 2 40 23 37 18 -2 23 -10 25 -40z"/>
<path d="M3452 3043 c-14 -12 -21 -31 -22 -58 -5 -130 6 -150 82 -143 l49 5
-6 -41 c-4 -23 -9 -49 -12 -60 -3 -12 -1 -16 6 -12 7 4 11 -1 11 -13 0 -16 6
-21 29 -21 25 0 31 6 46 48 10 26 33 77 51 114 19 37 34 69 34 72 0 2 -23 20
-50 40 l-51 37 -19 -43 c-11 -24 -20 -49 -20 -55 0 -8 -13 -13 -29 -13 -21 0
-28 -5 -27 -17 1 -13 -6 -18 -24 -18 -25 0 -25 1 -25 85 0 81 1 85 23 88 12 2
23 -1 23 -7 1 -6 2 -17 3 -23 1 -16 56 -24 56 -8 0 6 -11 22 -25 35 -29 30
-74 33 -103 8z"/>
<path d="M3017 2904 c-18 -19 14 -174 57 -279 l14 -33 45 21 44 21 -34 44
c-38 50 -65 100 -98 180 -12 29 -24 49 -28 46z"/>
<path d="M3130 2330 c-1 -3 -1 -63 -1 -135 l0 -130 -23 60 c-13 33 -34 93 -47
133 l-23 72 -60 0 -61 0 0 -174 0 -173 50 0 50 0 -2 136 c-2 155 0 154 58 -19
17 -52 36 -100 40 -106 5 -6 33 -12 62 -12 l52 0 0 177 0 177 -47 0 c-27 -1
-48 -3 -48 -6z m-163 -227 c-2 -32 -3 -6 -3 57 0 63 1 89 3 58 2 -32 2 -84 0
-115z m210 0 c-2 -32 -3 -6 -3 57 0 63 1 89 3 58 2 -32 2 -84 0 -115z"/>
<path d="M3383 2329 c-53 -10 -80 -24 -93 -49 -14 -26 -14 -214 0 -240 18 -34
69 -53 140 -53 82 0 134 23 149 64 l10 29 -52 0 c-52 0 -52 0 -52 -32 0 -40
-39 -57 -82 -36 -25 12 -28 19 -31 66 -2 31 2 60 9 68 9 11 9 14 0 14 -8 0
-11 21 -9 67 3 62 5 69 29 80 20 10 34 10 59 2 28 -10 31 -15 28 -40 -5 -29
-4 -29 48 -29 l53 0 -10 29 c-17 49 -106 76 -196 60z m-52 -216 c-8 -43 -9
-38 -9 47 0 85 1 90 9 48 6 -29 6 -67 0 -95z"/>
<path d="M3625 2159 l0 -178 50 0 50 0 0 82 0 82 55 0 55 0 3 -68 c2 -41 -2
-74 -8 -82 -10 -12 -1 -14 47 -14 l58 1 0 178 0 178 -58 0 c-43 0 -56 -3 -48
-11 6 -6 11 -44 11 -84 l0 -73 -61 0 -61 0 3 84 4 83 -50 0 -50 0 0 -178z m52
-51 c-2 -29 -3 -6 -3 52 0 58 1 81 3 53 2 -29 2 -77 0 -105z m210 0 c-2 -29
-3 -6 -3 52 0 58 1 81 3 53 2 -29 2 -77 0 -105z"/>
<path d="M4058 2326 c-71 -19 -78 -29 -78 -102 0 -41 -4 -64 -11 -64 -8 0 -8
-4 -1 -13 6 -7 12 -37 14 -67 3 -49 6 -56 37 -74 48 -28 163 -28 211 0 32 18
36 25 41 76 3 30 9 60 13 66 3 6 2 13 -3 16 -4 3 -8 30 -8 60 0 30 -4 59 -7
65 -23 37 -135 57 -208 37z m117 -166 l0 -145 -50 0 -50 0 -3 135 c-1 74 0
141 3 148 3 9 20 12 52 10 l48 -3 0 -145z m-146 -2 c-1 -61 -2 -68 -10 -43 -9
27 -4 115 7 115 2 0 4 -33 3 -72z m210 2 c0 -14 -4 -34 -9 -45 -6 -14 -9 -3
-9 40 -1 42 2 56 9 45 5 -8 9 -26 9 -40z"/>
<path d="M2168 2245 c3 -61 0 -85 -8 -85 -10 0 -10 -3 0 -15 7 -9 10 -40 8
-85 l-3 -70 45 0 45 0 0 77 0 78 40 3 c62 5 79 -14 85 -95 6 -77 15 -86 100
-97 37 -5 41 -4 20 4 -35 15 -40 27 -40 98 0 58 -2 63 -30 80 l-30 19 30 22
c24 17 30 29 30 59 0 20 -4 42 -8 49 -18 28 -82 43 -184 43 l-103 0 3 -85z
m200 48 c17 -22 10 -102 -9 -114 -8 -5 -34 -8 -59 -7 l-45 3 -3 64 c-2 44 1
67 10 73 20 14 91 1 106 -19z m62 -48 c0 -11 -5 -27 -10 -35 -7 -11 -10 -1
-10 35 0 36 3 46 10 35 5 -8 10 -24 10 -35z m-210 -86 c0 -64 -4 -98 -10 -94
-6 3 -10 48 -10 101 0 56 4 94 10 94 6 0 10 -40 10 -101z m209 -124 c1 -36 -2
-46 -9 -35 -5 8 -9 40 -9 70 1 70 17 38 18 -35z"/>
<path d="M2630 2317 c0 -10 -90 -262 -114 -317 -5 -12 3 -15 44 -15 41 0 50 3
50 18 0 10 7 33 14 52 15 34 16 35 76 35 57 0 61 -2 71 -27 6 -16 12 -39 13
-53 3 -23 7 -25 59 -26 55 -2 56 -2 42 20 -15 22 -75 182 -104 273 l-16 53
-67 0 c-49 0 -68 -4 -68 -13z m7 -134 c-27 -76 -63 -150 -51 -103 11 42 67
181 71 176 2 -2 -7 -35 -20 -73z m148 -23 c21 -55 35 -103 32 -106 -5 -5 -60
129 -72 179 -15 57 4 23 40 -73z m-65 45 c6 -19 9 -39 6 -44 -4 -5 -2 -12 4
-16 5 -3 10 -13 10 -21 0 -10 -12 -14 -39 -14 -44 0 -58 12 -36 30 8 7 12 16
9 21 -7 12 15 79 26 79 5 0 14 -16 20 -35z"/>
<path d="M1578 1988 c17 -17 17 -249 0 -266 -9 -9 -9 -12 0 -12 17 0 17 -231
0 -248 -9 -9 15 -12 111 -12 143 0 200 12 241 50 27 25 30 35 30 86 0 53 -3
60 -39 94 l-38 36 38 33 c38 32 39 33 39 103 0 65 -2 72 -30 98 -41 38 -98 50
-241 50 -96 0 -120 -3 -111 -12z m258 -39 c10 -8 14 -37 14 -92 0 -102 -11
-117 -85 -117 -64 0 -65 2 -65 120 0 74 3 91 18 100 20 12 99 5 118 -11z m84
-89 c0 -19 -5 -42 -10 -50 -7 -11 -10 4 -10 50 0 46 3 61 10 50 5 -8 10 -31
10 -50z m-260 -142 c0 -79 -4 -128 -10 -128 -6 0 -10 54 -10 143 0 95 3 137
10 127 5 -8 10 -72 10 -142z m174 -40 c20 -29 22 -160 3 -176 -21 -18 -92 -25
-116 -13 -19 11 -21 20 -21 105 0 51 3 96 7 99 3 4 30 7 59 7 43 0 56 -4 68
-22z m85 -83 c0 -16 -4 -39 -9 -50 -6 -14 -9 0 -9 45 -1 45 2 60 9 50 5 -8 9
-28 9 -45z"/>
<path d="M4480 1990 c0 -5 5 -12 10 -15 15 -9 13 -255 -2 -255 -9 0 -9 -3 0
-12 20 -20 16 -217 -4 -239 -16 -17 -12 -18 66 -18 62 0 80 3 71 12 -16 16
-15 247 2 247 7 0 34 -57 61 -130 l49 -131 59 3 60 3 47 125 c26 69 51 124 56
123 14 -4 18 -222 5 -239 -10 -10 2 -13 66 -13 58 0 74 3 65 12 -16 16 -15
229 1 245 9 9 9 12 0 12 -16 0 -17 251 -1 267 9 9 -8 11 -67 10 l-79 -2 -75
-192 c-41 -106 -77 -193 -80 -193 -3 0 -39 87 -80 193 l-76 192 -77 2 c-42 1
-77 -2 -77 -7z m553 -361 c-10 -89 -10 -84 -10 96 0 182 0 186 10 94 6 -63 6
-130 0 -190z m-474 94 c-1 -105 -4 -168 -9 -153 -16 49 -10 330 6 330 2 0 4
-80 3 -177z m129 10 c59 -151 72 -195 41 -139 -23 42 -99 239 -99 256 0 25 12
1 58 -117z m234 30 c-32 -94 -78 -203 -86 -203 -6 0 42 141 79 233 15 37 29
66 32 63 2 -2 -9 -44 -25 -93z m-305 -35 c-3 -7 -5 -2 -5 12 0 14 2 19 5 13 2
-7 2 -19 0 -25z m350 0 c-3 -7 -5 -2 -5 12 0 14 2 19 5 13 2 -7 2 -19 0 -25z"/>
<path d="M2039 1850 c-20 -11 -39 -27 -43 -36 -11 -29 -8 -282 4 -305 28 -51
169 -68 231 -26 32 21 34 26 37 87 2 35 8 70 14 77 7 9 7 13 -1 13 -7 0 -11
26 -11 75 0 81 -13 105 -66 125 -42 16 -126 11 -165 -10z m131 -20 c16 -16 20
-33 20 -89 0 -40 -5 -73 -11 -77 -8 -4 -8 -9 0 -17 18 -18 14 -127 -6 -149
-23 -25 -68 -23 -87 4 -18 26 -22 133 -5 144 8 4 8 9 0 17 -6 6 -11 42 -11 79
0 74 19 108 60 108 11 0 29 -9 40 -20z m-133 -212 c-2 -29 -3 -8 -3 47 0 55 1
79 3 53 2 -26 2 -71 0 -100z m203 42 c0 -30 -5 -62 -10 -70 -7 -10 -10 11 -10
70 0 59 3 80 10 70 5 -8 10 -40 10 -70z"/>
<path d="M2315 1665 l0 -205 54 0 c45 0 52 2 42 14 -14 17 -11 168 4 173 6 2
26 -39 45 -89 l35 -93 50 0 50 0 34 93 c19 50 38 92 43 92 5 0 8 -42 6 -95
l-3 -95 54 0 c43 0 52 3 43 12 -15 15 -16 142 -2 168 7 13 7 21 0 25 -13 8
-13 161 0 186 10 18 7 19 -49 19 l-59 0 -57 -146 c-32 -80 -61 -142 -65 -137
-4 4 -32 70 -61 146 l-53 137 -56 0 -55 0 0 -205z m412 -62 c-2 -37 -3 -9 -3
62 0 72 1 102 3 68 2 -34 2 -93 0 -130z m-360 5 c-2 -35 -3 -9 -3 57 0 66 1
94 3 63 2 -32 2 -86 0 -120z m263 52 c-32 -86 -57 -137 -44 -90 12 46 66 181
70 177 3 -2 -9 -41 -26 -87z m-160 -1 c17 -45 29 -83 27 -86 -4 -4 -67 148
-67 162 0 19 13 -5 40 -76z"/>
<path d="M3015 1856 c-61 -27 -66 -40 -66 -189 0 -75 5 -145 10 -156 38 -70
245 -66 267 7 3 9 10 25 15 35 8 15 3 17 -52 17 -53 0 -60 -2 -49 -15 18 -22
4 -64 -24 -71 -37 -9 -59 -1 -73 26 -16 31 -17 122 -2 137 8 8 8 13 0 17 -14
9 -14 116 -1 150 21 57 117 35 108 -25 -4 -29 -4 -29 43 -29 l48 0 -10 32 c-5
18 -9 34 -9 35 0 2 -18 12 -40 23 -45 23 -120 26 -165 6z m-18 -248 c-2 -29
-3 -6 -3 52 0 58 1 81 3 53 2 -29 2 -77 0 -105z"/>
<path d="M3356 1859 c8 -13 -46 -199 -57 -199 -5 0 -6 -6 -3 -13 2 -7 -8 -52
-24 -100 l-28 -87 47 0 c45 0 47 1 52 33 3 17 10 45 16 60 10 27 14 28 67 25
l57 -3 13 -45 c8 -25 12 -51 9 -57 -3 -10 11 -13 50 -13 l53 0 -13 28 c-8 15
-23 61 -34 102 -11 41 -32 113 -46 160 -14 47 -24 93 -21 103 4 15 -4 17 -71
17 -51 0 -72 -3 -67 -11z m149 -197 c15 -52 25 -95 23 -98 -5 -4 -68 194 -68
211 1 22 20 -26 45 -113z m-59 6 c-2 -10 -1 -18 4 -18 4 0 10 -9 13 -20 5 -18
0 -20 -39 -20 -46 0 -54 9 -29 34 8 8 11 17 6 20 -5 4 -2 28 7 57 l17 52 13
-44 c7 -24 11 -52 8 -61z m-96 -23 c-18 -53 -33 -95 -36 -93 -2 2 11 51 28
107 18 57 34 99 35 94 2 -6 -10 -54 -27 -108z"/>
<path d="M3638 1858 c15 -15 16 -184 1 -194 -8 -4 -8 -9 0 -17 15 -15 14 -160
-1 -175 -9 -9 0 -12 43 -12 l54 0 -3 157 c-1 86 0 154 2 152 2 -2 23 -73 46
-156 l42 -153 57 0 56 0 0 205 0 205 -50 0 -50 0 2 -157 1 -158 -34 120 c-19
66 -39 137 -44 158 l-11 37 -61 0 c-48 0 -59 -3 -50 -12z m249 -265 c-2 -38
-3 -7 -3 67 0 74 1 105 3 68 2 -38 2 -98 0 -135z m-200 15 c-2 -35 -3 -9 -3
57 0 66 1 94 3 63 2 -32 2 -86 0 -120z"/>
<path d="M3968 1820 c3 -42 7 -50 24 -50 32 0 55 18 67 51 6 17 16 29 23 27
10 -4 13 -50 13 -196 l0 -192 55 0 c42 0 51 3 42 12 -15 15 -16 164 -2 173 8
5 8 11 0 20 -6 8 -10 47 -8 97 3 75 5 83 23 83 13 0 21 -8 23 -22 4 -25 37
-53 63 -53 13 0 18 11 21 50 l3 50 -175 0 -175 0 3 -50z m181 -157 c-1 -100
-3 -111 -11 -73 -8 41 -2 190 8 190 2 0 4 -53 3 -117z"/>
<path d="M4345 1665 l0 -205 50 0 50 0 0 205 0 205 -50 0 -50 0 0 -205z m52
-62 c-2 -37 -3 -9 -3 62 0 72 1 102 3 68 2 -34 2 -93 0 -130z"/>
<path d="M5126 1394 c-11 -30 -6 -53 20 -84 22 -26 28 -28 38 -16 12 16 96 30
96 15 0 -4 6 -6 14 -3 8 3 18 -7 26 -26 17 -42 28 -46 56 -19 28 26 32 73 8
107 -24 34 -35 27 -28 -19 l7 -42 -29 8 c-16 4 -52 8 -81 9 -40 1 -57 6 -77
25 -14 14 -26 33 -26 43 0 22 -16 24 -24 2z"/>
<path d="M4571 1305 c-7 -16 -10 -41 -8 -54 7 -34 -18 -87 -53 -113 -24 -17
-30 -29 -30 -58 0 -42 -14 -64 -97 -150 -63 -64 -71 -82 -53 -110 8 -11 9 -9
5 10 -4 19 3 34 30 62 20 20 41 35 48 32 7 -2 22 4 32 16 10 11 24 20 30 20
21 0 75 -57 75 -79 0 -12 5 -21 10 -21 6 0 10 -8 10 -18 0 -15 -13 -22 -55
-31 -30 -7 -57 -17 -60 -22 -3 -5 2 -6 11 -2 12 4 15 2 12 -8 -3 -9 -22 -15
-49 -17 -34 -2 -50 2 -67 18 -12 11 -22 17 -22 12 0 -40 133 -62 147 -24 9 23
23 32 52 32 13 0 39 11 57 25 21 16 46 25 69 25 20 0 53 9 75 20 22 11 42 20
44 20 3 0 15 -19 27 -42 15 -30 24 -68 27 -121 3 -52 8 -75 15 -68 5 5 8 49 5
103 -3 77 -9 104 -31 150 -15 31 -27 72 -27 94 l0 39 81 -78 c45 -43 84 -75
87 -72 3 3 -31 43 -76 89 -55 56 -84 94 -88 115 -7 34 -20 41 -27 14 -3 -10
-5 -1 -6 19 0 20 -4 43 -7 51 -15 39 218 -83 270 -142 24 -26 36 -27 29 -2
-11 43 -176 151 -231 151 -46 0 -84 24 -128 81 -43 57 -74 78 -59 42 11 -27
18 -63 12 -63 -25 0 -59 28 -66 54 l-8 31 -12 -30z m179 -146 l0 -24 -25 25
c-17 18 -23 32 -19 47 l6 23 19 -24 c11 -13 19 -35 19 -47z m-75 41 c3 -6 -1
-7 -9 -4 -18 7 -21 14 -7 14 6 0 13 -4 16 -10z m14 -39 c20 -15 31 -31 31 -47
0 -26 -55 -113 -111 -177 l-34 -37 -43 41 c-33 31 -41 46 -37 62 6 21 6 22 -9
3 -20 -25 -20 -13 0 25 8 17 13 38 10 46 -4 9 11 34 36 64 41 47 45 49 85 46
22 -3 55 -14 72 -26z m66 -41 c3 -5 1 -10 -4 -10 -6 0 -11 5 -11 10 0 6 2 10
4 10 3 0 8 -4 11 -10z m15 -49 c18 -35 12 -135 -10 -164 -24 -31 -81 -51 -117
-42 -18 4 -29 1 -39 -12 -12 -17 -13 -16 -14 9 0 17 13 41 35 65 20 21 54 66
76 101 23 34 45 62 50 62 4 0 13 -9 19 -19z m-320 -104 c0 -2 -10 -12 -22 -23
l-23 -19 19 23 c18 21 26 27 26 19z"/>
<path d="M4555 1139 c-4 -6 -5 -12 -2 -15 2 -3 7 2 10 11 7 17 1 20 -8 4z"/>
<path d="M4673 1127 c-6 -13 -8 -29 -3 -36 4 -8 10 -1 14 20 8 40 3 47 -11 16z"/>
<path d="M4592 1098 c-7 -7 -12 -16 -12 -21 0 -5 7 -1 16 8 9 9 23 14 31 11 8
-3 11 -1 8 4 -8 14 -28 13 -43 -2z"/>
<path d="M4604 1065 c-4 -9 -2 -21 4 -27 15 -15 44 -1 40 19 -4 23 -36 29 -44
8z"/>
<path d="M4615 990 c-21 -22 -33 -40 -26 -40 14 0 71 57 71 71 0 14 -3 12 -45
-31z"/>
<path d="M5555 1305 c-22 -8 -67 -24 -100 -35 -38 -13 -47 -19 -25 -15 19 3
59 8 87 11 29 4 51 10 48 14 -6 9 39 28 80 33 24 3 21 4 -10 5 -22 0 -58 -6
-80 -13z"/>
<path d="M1550 1296 c-20 -7 -92 -13 -164 -14 -71 -1 -132 -5 -135 -8 -10 -10
28 -59 68 -88 34 -25 49 -29 101 -29 44 1 67 6 81 19 22 20 25 44 7 63 -11 10
-10 11 5 6 17 -7 22 -31 11 -60 -9 -21 -56 -45 -92 -45 l-29 0 4 -57 c5 -78
11 -103 24 -103 6 0 8 7 5 17 -10 24 12 81 34 88 11 3 31 -1 45 -11 14 -9 25
-12 25 -6 0 6 -4 14 -10 17 -5 3 -10 24 -10 45 0 31 6 43 30 60 16 11 35 33
42 48 17 35 43 39 79 12 27 -19 31 -19 45 -6 19 20 10 34 -32 52 -40 17 -87
17 -134 0z"/>
<path d="M1793 1248 l-43 -9 22 -30 c12 -16 25 -29 30 -29 11 0 78 61 78 71 0
11 -31 10 -87 -3z"/>
<path d="M5090 1242 c-23 -10 -55 -35 -64 -50 -9 -16 11 -42 32 -42 13 0 12 3
-3 14 -19 14 -19 14 0 36 25 28 72 24 66 -5 -2 -11 -3 -41 -2 -67 1 -54 -22
-102 -77 -160 -32 -34 -34 -40 -24 -63 12 -25 41 -41 93 -52 28 -5 70 25 68
50 0 6 -7 2 -16 -10 -8 -13 -23 -23 -32 -23 -18 1 -61 30 -43 30 26 0 10 29
-19 35 l-31 7 26 27 c14 14 37 49 51 76 21 43 23 55 14 83 -9 27 -7 37 12 68
18 30 19 38 8 45 -16 10 -38 10 -59 1z"/>
<path d="M5401 1215 c9 -11 14 -26 11 -34 -8 -23 20 -31 48 -14 25 14 30 14
64 -2 31 -15 35 -20 24 -31 -7 -7 -32 -16 -55 -20 -37 -6 -45 -3 -66 20 -14
15 -35 26 -48 25 -22 0 -23 -1 -4 -8 11 -5 29 -18 39 -30 33 -36 156 -18 156
23 0 21 -60 54 -110 62 -25 4 -52 12 -60 18 -12 8 -11 6 1 -9z"/>
<path d="M1569 1140 c13 -11 28 -20 35 -20 6 0 4 5 -4 10 -12 8 -10 10 10 11
l25 1 -25 8 c-14 4 -34 8 -45 9 -19 0 -18 -1 4 -19z"/>
<path d="M1647 1151 c2 -2 -2 -10 -8 -17 -7 -9 -4 -14 11 -19 29 -9 32 -4 12
20 -9 11 -16 18 -15 16z"/>
<path d="M2286 1142 c-17 -9 -42 -29 -58 -44 -15 -16 -32 -28 -38 -28 -5 0
-10 -7 -10 -15 0 -8 -4 -15 -9 -15 -15 0 -18 -59 -4 -79 10 -14 10 -26 3 -46
-12 -33 -13 -65 -1 -65 5 0 7 8 5 18 -5 20 32 85 45 78 4 -3 14 6 21 19 7 14
17 25 22 25 4 0 8 5 8 10 0 15 30 42 73 68 45 26 42 26 59 8 8 -7 32 -23 55
-34 48 -25 141 -115 213 -206 48 -60 72 -84 54 -53 -56 97 -202 251 -262 276
-27 11 -30 16 -20 29 11 13 10 14 -10 8 -12 -4 -22 -4 -21 1 4 21 -2 32 -15
27 -8 -3 -16 3 -19 15 -7 26 -50 28 -91 3z"/>
<path d="M5253 1143 c-20 -7 -15 -33 6 -33 27 0 46 26 25 34 -8 3 -16 6 -17 5
-1 0 -8 -3 -14 -6z"/>
<path d="M1804 1095 c8 -43 54 -127 98 -178 38 -44 25 -6 -18 53 -18 25 -42
70 -54 100 -27 69 -35 76 -26 25z"/>
<path d="M4070 1077 c18 -25 28 -50 25 -59 -5 -14 2 -15 59 -11 51 5 71 2 91
-11 24 -16 25 -15 25 2 0 10 -8 26 -18 36 -19 16 -182 86 -202 86 -6 0 3 -19
20 -43z"/>
<path d="M5332 979 c-13 -16 -29 -29 -37 -29 -7 0 -18 -7 -25 -15 -7 -9 -28
-23 -47 -31 -18 -9 -31 -19 -29 -22 3 -3 28 7 55 21 48 24 51 25 82 9 20 -11
43 -36 59 -66 21 -40 36 -53 83 -76 69 -33 77 -23 10 11 -37 18 -54 36 -75 74
-15 28 -39 60 -53 72 -25 22 -25 24 -9 48 23 36 14 38 -14 4z"/>
<path d="M2359 984 c-10 -13 -10 -17 2 -25 8 -5 17 -9 21 -9 7 0 28 33 28 44
0 13 -38 5 -51 -10z"/>
<path d="M1862 878 c-14 -14 3 -38 27 -38 9 0 22 -5 29 -12 9 -9 12 -9 12 3 0
15 -20 38 -46 52 -6 3 -16 1 -22 -5z"/>
<path d="M4454 850 c-1 -16 3 -27 7 -24 11 6 12 54 2 54 -5 0 -8 -13 -9 -30z"/>
<path d="M1750 861 c0 -5 16 -23 36 -41 69 -60 135 -76 133 -33 0 11 -3 13 -6
6 -11 -29 -63 -14 -109 32 -46 46 -54 52 -54 36z"/>
<path d="M4383 863 c4 -3 0 -14 -9 -24 -9 -10 -14 -25 -11 -34 8 -18 28 -20
25 -2 -2 6 5 12 14 12 24 0 31 10 23 34 -4 13 -15 21 -27 21 -12 0 -18 -3 -15
-7z"/>
<path d="M4450 625 c0 -14 4 -25 9 -25 4 0 6 11 3 25 -2 14 -6 25 -8 25 -2 0
-4 -11 -4 -25z"/>
<path d="M4263 580 c0 -25 2 -35 4 -22 2 12 2 32 0 45 -2 12 -4 2 -4 -23z"/>
<path d="M4000 561 c0 -6 4 -13 10 -16 6 -3 7 1 4 9 -7 18 -14 21 -14 7z"/>
<path d="M3900 505 c0 -8 4 -15 10 -15 5 0 7 7 4 15 -4 8 -8 15 -10 15 -2 0
-4 -7 -4 -15z"/>
<path d="M2961 464 c0 -11 3 -14 6 -6 3 7 2 16 -1 19 -3 4 -6 -2 -5 -13z"/>
</g>
</svg>
